<?xml version="1.0" encoding="UTF-8"?>
<svg xmlns="http://www.w3.org/2000/svg" xmlns:xlink="http://www.w3.org/1999/xlink" width="192px" height="192px" viewBox="0 0 192 192" version="1.1">
<g id="surface1">
<path style=" stroke:none;fill-rule:nonzero;fill:rgb(0%,0%,0%);fill-opacity:1;" d="M 144 64.003906 L 136.003906 64.003906 L 136.003906 48 C 136.003906 25.921875 118.078125 7.996094 96 7.996094 C 73.921875 7.996094 55.996094 25.921875 55.996094 48 L 55.996094 64.003906 L 48 64.003906 C 39.199219 64.003906 31.996094 71.199219 31.996094 79.996094 L 31.996094 160.003906 C 31.996094 168.800781 39.199219 175.996094 48 175.996094 L 144 175.996094 C 152.800781 175.996094 160.003906 168.800781 160.003906 160.003906 L 160.003906 79.996094 C 160.003906 71.199219 152.800781 64.003906 144 64.003906 Z M 96 136.003906 C 87.199219 136.003906 79.996094 128.800781 79.996094 120 C 79.996094 111.199219 87.199219 103.996094 96 103.996094 C 104.800781 103.996094 112.003906 111.199219 112.003906 120 C 112.003906 128.800781 104.800781 136.003906 96 136.003906 Z M 120.800781 64.003906 L 71.199219 64.003906 L 71.199219 48 C 71.199219 34.316406 82.316406 23.199219 96 23.199219 C 109.683594 23.199219 120.800781 34.316406 120.800781 48 Z M 120.800781 64.003906 "/>
</g>
</svg>
